
		<svg xmlns="http://www.w3.org/2000/svg" xmlns:xlink="http://www.w3.org/1999/xlink" version="1.1" width="3300" height="3003.9880408318854">
			
			<g transform="scale(15) translate(10, 10)">
				<defs id="SvgjsDefs1240"><linearGradient id="SvgjsLinearGradient1247"><stop id="SvgjsStop1248" stop-color="#8f5e25" offset="0"/><stop id="SvgjsStop1249" stop-color="#fbf4a1" offset="0.5"/><stop id="SvgjsStop1250" stop-color="#8f5e25" offset="1"/></linearGradient><linearGradient id="SvgjsLinearGradient1251"><stop id="SvgjsStop1252" stop-color="#8f5e25" offset="0"/><stop id="SvgjsStop1253" stop-color="#fbf4a1" offset="0.5"/><stop id="SvgjsStop1254" stop-color="#8f5e25" offset="1"/></linearGradient><linearGradient id="SvgjsLinearGradient1255"><stop id="SvgjsStop1256" stop-color="#8f5e25" offset="0"/><stop id="SvgjsStop1257" stop-color="#fbf4a1" offset="0.5"/><stop id="SvgjsStop1258" stop-color="#8f5e25" offset="1"/></linearGradient></defs><g id="SvgjsG1241" featureKey="Mfaono-0" transform="matrix(1.25,0,0,1.25,37.5,-12.5)" fill="#000"><path d="M35,65.833c0-8.587,3.535-16.36,9.219-21.956c-3.063-1.406-6.458-2.21-10.052-2.21C20.82,41.667,10,52.487,10,65.833  C10,79.18,20.82,90,34.167,90c3.594,0,6.988-0.804,10.052-2.21C38.535,82.194,35,74.421,35,65.833z"/><path d="M65.833,65c-8.587,0-16.36-3.535-21.956-9.222c-1.406,3.066-2.21,6.461-2.21,10.055C41.667,79.18,52.487,90,65.833,90  C79.18,90,90,79.18,90,65.833c0-3.594-0.804-6.988-2.21-10.055C82.194,61.465,74.421,65,65.833,65z"/><path d="M65.833,10c-3.594,0-6.988,0.804-10.055,2.21C61.465,17.806,65,25.579,65,34.167c0,8.587-3.535,16.36-9.222,21.956  c3.066,1.406,6.461,2.21,10.055,2.21C79.18,58.333,90,47.513,90,34.167C90,20.82,79.18,10,65.833,10z"/><path d="M34.167,35c8.587,0,16.36,3.535,21.956,9.219c1.406-3.063,2.21-6.458,2.21-10.052C58.333,20.82,47.513,10,34.167,10  C20.82,10,10,20.82,10,34.167c0,3.594,0.804,6.988,2.21,10.052C17.806,38.535,25.579,35,34.167,35z"/></g><g id="SvgjsG1242" featureKey="dqvFMb-0" transform="matrix(1.3952842729899568,0,0,1.3952842729899568,-1.3952846056516506,118.52588249026392)" fill="#000"><path d="M13.8 15.46 q0 1.46 -0.88 2.6 q-0.86 1.08 -2.37 1.68 t-3.41 0.6 q-1.74 0 -3.38 -0.81 t-2.76 -2.25 l1.56 -1.46 q1.94 2.34 4.58 2.34 q1.16 0 2.12 -0.28 q1.06 -0.32 1.64 -0.9 q0.66 -0.64 0.66 -1.52 q0 -1.06 -0.66 -1.6 q-0.56 -0.46 -1.66 -0.6 q-0.64 -0.08 -2.1 -0.08 q-2.68 0 -4.09 -0.98 t-1.41 -2.88 q0 -1.2 0.71 -2.28 t1.95 -1.72 q1.28 -0.68 2.84 -0.68 q1.76 0 3.18 0.54 q1.52 0.58 2.82 1.82 l-1.36 1.6 q-1.22 -0.98 -2.22 -1.37 t-2.42 -0.39 q-0.82 0 -1.53 0.34 t-1.13 0.91 t-0.42 1.21 q0 1.72 3.18 1.72 q2.54 0 4.02 0.52 q1.4 0.5 2 1.52 q0.54 0.9 0.54 2.4 z M25.32 11.7 l-3.9 0 l0 8.3 l-2.06 0 l0 -8.3 l-3.76 0 l0 -2.06 l9.72 0 l0 2.06 z M30.560000000000002 20 l-2.04 0 l0 -10.36 l2.04 0 l0 10.36 z M43 20 l-7.64 0 l0 -10.36 l2.14 0 l0 8.28 l5.5 0 l0 2.08 z M53.64 20 l-7.64 0 l0 -10.36 l2.14 0 l0 8.28 l5.5 0 l0 2.08 z M78.28 5.08 l2.3 0 l-4.76 14.92 l-2.36 0 l-2.88 -8.82 l-2.8 8.82 l-2.36 0 l-5.06 -14.92 l2.24 0 l3.96 11.16 l2.8 -8.8 l-0.76 -2.36 l2.24 0 l3.76 11.16 z M89.64 16.56 l0.28 0 l-2.02 -3.84 l-2.46 4.74 q0.68 -0.36 1.54 -0.58 q1.24 -0.32 2.66 -0.32 z M86.84 10.7 l-0.68 -1.3 l2.22 0 l5.6 10.6 l-2.26 0 l-0.82 -1.56 l-1.24 0 q-1.18 0 -2.5 0.28 q-1.12 0.22 -2.04 0.6 q-0.84 0.32 -1.02 0.56 l-0.06 0.12 l-2.16 0 z M105.3 11.7 l-3.9 0 l0 8.3 l-2.06 0 l0 -8.3 l-3.76 0 l0 -2.06 l9.72 0 l0 2.06 z M110.53999999999999 16.28 l0 1.64 l6.5 0 l0 2.08 l-8.54 0 l0 -10.36 l8.16 0 l0 2.06 l-6.12 0 l0 2.52 q0.62 -0.36 1.5 -0.5 q0.68 -0.1 1.74 -0.1 l1.52 0 l0 2.06 l-1.52 0 q-1.38 0 -2 0.12 q-0.54 0.1 -1.24 0.48 z M128.5 15.780000000000001 l0.64 1.08 q0.34 0.56 0.86 0.78 q0.36 0.14 0.88 0.14 l0.72 0 l0 2.22 l-0.9 0 q-0.66 0 -1.04 -0.08 q-0.56 -0.12 -1.02 -0.44 q-0.5 -0.38 -0.96 -1.12 l-1.6 -2.6 l-0.14 0 q-1.14 0 -1.74 0.14 q-0.48 0.1 -1.16 0.46 l0 3.64 l-2.1 0 l0 -10.36 l6.68 0 q0.94 0 1.68 0.4 t1.16 1.12 t0.42 1.6 q0 1.16 -0.61 1.91 t-1.77 1.11 z M125.94 13.7 l1.68 0 q0.5 0 0.83 -0.26 t0.33 -0.74 q0 -0.62 -0.48 -0.84 q-0.34 -0.16 -1.04 -0.16 l-4.22 0 l0 2.6 q1.1 -0.6 2.9 -0.6 z M143.54 10.6 l-1.38 1.6 q-1.1 -0.9 -3.08 -0.9 q-0.78 0 -1.44 0.34 t-0.66 0.78 q0 0.36 0.14 0.54 q0.18 0.26 0.64 0.36 q0.52 0.14 1.48 0.14 q2.08 0 3.28 0.46 q1.06 0.38 1.48 1.14 q0.34 0.62 0.34 1.58 q0 1.8 -1.5 2.76 q-1.42 0.92 -3.74 0.92 q-1.34 0 -2.59 -0.59 t-2.11 -1.61 l1.48 -1.5 l0.18 0.2 q0.42 0.44 0.68 0.68 q0.46 0.38 0.96 0.58 q0.62 0.24 1.4 0.24 q1.44 0 2.32 -0.44 t0.88 -1.24 q0 -0.68 -0.78 -0.92 q-0.7 -0.22 -2.42 -0.22 q-2 0 -3.06 -0.7 q-1.22 -0.76 -1.22 -2.38 q0 -0.92 0.6 -1.64 q0.56 -0.7 1.54 -1.09 t2.14 -0.39 q1.24 0 2.22 0.26 q1.16 0.3 2.22 1.04 z"/></g><g id="SvgjsG1243" featureKey="dqvFMb-1" transform="matrix(1.5328020121768602,0,0,1.5328020121768602,-3.372164499878788,149.21336589508508)" fill="#000"><path d="M7.22 11.46 l2.64 0 q2.2 0 2.2 -2.12 q0 -1.1 -0.55 -1.59 t-1.65 -0.49 l-5.48 0 l0 4.8 q0.62 -0.36 1.4 -0.5 q0.58 -0.1 1.44 -0.1 z M4.38 20 l-2.18 0 l0 -14.92 l7.66 0 q1.32 0 2.3 0.51 t1.52 1.47 t0.54 2.27 t-0.54 2.29 t-1.53 1.51 t-2.29 0.53 l-2.64 0 q-1.72 0 -2.84 0.6 l0 5.74 z M25.560000000000002 10.6 l-1.38 1.6 q-1.1 -0.9 -3.08 -0.9 q-0.78 0 -1.44 0.34 t-0.66 0.78 q0 0.36 0.14 0.54 q0.18 0.26 0.64 0.36 q0.52 0.14 1.48 0.14 q2.08 0 3.28 0.46 q1.06 0.38 1.48 1.14 q0.34 0.62 0.34 1.58 q0 1.8 -1.5 2.76 q-1.42 0.92 -3.74 0.92 q-1.34 0 -2.59 -0.59 t-2.11 -1.61 l1.48 -1.5 l0.18 0.2 q0.42 0.44 0.68 0.68 q0.46 0.38 0.96 0.58 q0.62 0.24 1.4 0.24 q1.44 0 2.32 -0.44 t0.88 -1.24 q0 -0.68 -0.78 -0.92 q-0.7 -0.22 -2.42 -0.22 q-2 0 -3.06 -0.7 q-1.22 -0.76 -1.22 -2.38 q0 -0.92 0.6 -1.64 q0.56 -0.7 1.54 -1.09 t2.14 -0.39 q1.24 0 2.22 0.26 q1.16 0.3 2.22 1.04 z M38.940000000000005 9.64 l-4.28 6.18 l0 4.18 l-2.04 0 l0 -4.18 l-4.36 -6.18 l2.6 0 l2.76 4.08 l2.84 -4.08 l2.48 0 z M50.2 17.12 l1.2 1.72 q-0.84 0.72 -1.95 1.1 t-2.31 0.38 q-1.6 0 -2.98 -0.66 q-1.42 -0.68 -2.24 -1.88 q-0.88 -1.32 -0.88 -3 t0.9 -2.98 q0.82 -1.2 2.26 -1.86 q1.38 -0.64 2.96 -0.64 q1.16 0 2.24 0.33 t1.92 0.97 l-1.38 1.6 q-0.58 -0.4 -1.31 -0.61 t-1.47 -0.21 q-1.04 0 -1.92 0.38 q-0.92 0.38 -1.44 1.12 q-0.58 0.82 -0.58 1.94 t0.58 1.92 q0.54 0.74 1.48 1.14 q0.86 0.36 1.9 0.36 q0.82 0 1.62 -0.29 t1.4 -0.83 z M57.04 15.879999999999999 l0 4.12 l-2.04 0 l0 -10.36 l2.04 0 l0 4.14 q0.54 -0.26 1.22 -0.26 q0.4 0 1.42 0.14 q1.16 0.16 1.7 0.16 q0.76 0 1.3 -0.26 l0 -3.92 l2.04 0 l0 10.36 l-2.04 0 l0 -4.34 q-0.52 0.26 -1.22 0.26 q-0.54 0 -1.6 -0.14 q-1.02 -0.14 -1.52 -0.14 q-0.74 0 -1.3 0.24 z M78.60000000000001 14.74 q0 -1.1 -0.6 -1.9 q-0.52 -0.7 -1.46 -1.08 q-0.86 -0.34 -1.9 -0.34 t-1.92 0.36 q-0.94 0.38 -1.46 1.12 q-0.58 0.8 -0.58 1.92 t0.6 1.92 q0.52 0.72 1.46 1.12 q0.88 0.36 1.9 0.36 t1.92 -0.4 q0.92 -0.42 1.46 -1.18 q0.58 -0.82 0.58 -1.9 z M80.76 14.719999999999999 q0 1.7 -0.9 3.02 q-0.82 1.22 -2.26 1.92 q-1.38 0.66 -2.98 0.66 t-2.98 -0.66 q-1.42 -0.68 -2.24 -1.88 q-0.88 -1.32 -0.88 -3 t0.9 -2.98 q0.82 -1.2 2.26 -1.86 q1.38 -0.64 2.98 -0.64 t2.96 0.6 q1.42 0.64 2.24 1.82 q0.9 1.28 0.9 3 z M92.20000000000002 20 l-7.64 0 l0 -10.36 l2.14 0 l0 8.28 l5.5 0 l0 2.08 z M104.28000000000002 14.74 q0 -1.1 -0.6 -1.9 q-0.52 -0.7 -1.46 -1.08 q-0.86 -0.34 -1.9 -0.34 t-1.92 0.36 q-0.94 0.38 -1.46 1.12 q-0.58 0.8 -0.58 1.92 t0.6 1.92 q0.52 0.72 1.46 1.12 q0.88 0.36 1.9 0.36 t1.92 -0.4 q0.92 -0.42 1.46 -1.18 q0.58 -0.82 0.58 -1.9 z M106.44000000000001 14.719999999999999 q0 1.7 -0.9 3.02 q-0.82 1.22 -2.26 1.92 q-1.38 0.66 -2.98 0.66 t-2.98 -0.66 q-1.42 -0.68 -2.24 -1.88 q-0.88 -1.32 -0.88 -3 t0.9 -2.98 q0.82 -1.2 2.26 -1.86 q1.38 -0.64 2.98 -0.64 t2.96 0.6 q1.42 0.64 2.24 1.82 q0.9 1.28 0.9 3 z M119.60000000000002 14.1 l0 4.74 q-0.84 0.72 -1.95 1.1 t-2.31 0.38 q-1.6 0 -2.98 -0.66 q-1.42 -0.68 -2.24 -1.88 q-0.88 -1.32 -0.88 -3 t0.9 -2.98 q0.82 -1.2 2.26 -1.86 q1.38 -0.64 2.96 -0.64 q1.16 0 2.24 0.33 t1.92 0.97 l-1.38 1.6 q-0.58 -0.4 -1.31 -0.61 t-1.47 -0.21 q-1.04 0 -1.92 0.38 q-0.92 0.38 -1.44 1.12 q-0.58 0.82 -0.58 1.94 t0.58 1.92 q0.54 0.74 1.48 1.14 q0.86 0.36 1.9 0.36 q1.16 0 2.18 -0.54 l0 -1.66 l-1.06 0 l-0.88 -1.94 l3.98 0 z M132.68 9.64 l-4.28 6.18 l0 4.18 l-2.04 0 l0 -4.18 l-4.36 -6.18 l2.6 0 l2.76 4.08 l2.84 -4.08 l2.48 0 z"/></g>
			</g>
		</svg>
	